
<svg xmlns="http://www.w3.org/2000/svg" viewBox="0 0 512 512"><path fill="#00d8e0" d="M353.082 83.129l-50.555-36.11C298.578 20.45 275.613 0 247.965 0H55.168C24.746 0 0 24.746 0 55.164V247.97c0 30.418 24.746 55.164 55.168 55.164h168.7c8.284 0 15-6.715 15-15 0-4.145-1.677-7.895-4.391-10.606l43.046-43.05a14.953 14.953 0 0010.606 4.394c8.285 0 15-6.719 15-15V143.22l49.953-35.68a14.992 14.992 0 006.281-12.203c0-4.848-2.34-9.395-6.281-12.207zm0 0"/><path fill="#00acb3" d="M353.082 83.129l-50.555-36.11C298.578 20.45 275.613 0 247.965 0h-95.328v303.133h71.23c8.285 0 15-6.715 15-15 0-4.145-1.676-7.895-4.39-10.606l43.046-43.05a14.953 14.953 0 0010.606 4.394c8.285 0 15-6.719 15-15V143.22l49.953-35.68a14.992 14.992 0 006.281-12.203c0-4.848-2.34-9.395-6.281-12.207zm0 0"/><path fill="#fef4f5" d="M197.652 193.86a63.606 63.606 0 01-32.812-9.07c11.586-12.505 19.289-28.65 21.152-46.517h11.66c4.668 0 8.457-3.785 8.457-8.457s-3.789-8.46-8.457-8.46h-37.629v-20.54a8.46 8.46 0 10-16.918 0v20.54h-37.628a8.459 8.459 0 000 16.918h11.66c1.86 17.867 9.562 34.011 21.148 46.515a63.656 63.656 0 01-32.808 9.07c-4.672 0-8.461 3.786-8.461 8.457s3.789 8.461 8.46 8.461c17.114 0 32.997-5.355 46.087-14.453 13.09 9.102 28.972 14.453 46.085 14.453a8.459 8.459 0 10.004-16.918zm-28.707-55.587c-1.84 13.868-8.125 26.34-17.382 35.942-9.254-9.602-15.54-22.074-17.38-35.942zm0 0"/><path fill="#54e360" d="M456.836 208.867h-192.8c-30.419 0-55.165 24.746-55.165 55.164v104.75l-49.953 35.68a14.992 14.992 0 00-6.281 12.203c0 4.848 2.34 9.395 6.281 12.207l50.555 36.11C213.422 491.55 236.387 512 264.035 512h192.8C487.255 512 512 487.254 512 456.832v-192.8c0-30.419-24.746-55.165-55.164-55.165zm0 0"/><path fill="#00ab5e" d="M456.836 208.867h-96.402V512h96.402C487.254 512 512 487.254 512 456.832v-192.8c0-30.419-24.746-55.165-55.164-55.165zm0 0"/><path fill="#fef4f5" d="M315.684 410.969c0-.324.164-.965.324-1.61l31.012-101.062c1.445-4.82 7.386-7.074 13.332-7.074 6.109 0 12.054 2.254 13.5 7.074l31.007 101.062c.16.645.325 1.125.325 1.61 0 4.976-7.551 8.672-13.176 8.672-3.535 0-6.266-1.121-7.07-4.176l-6.106-21.371h-36.797l-6.105 21.37c-.801 3.056-3.532 4.177-7.067 4.177-5.625 0-13.18-3.536-13.18-8.672zm58.652-33.266l-13.984-49.324-13.977 49.324zm0 0"/><g fill="#d5eded"><path d="M197.652 138.273c4.668 0 8.457-3.785 8.457-8.457s-3.789-8.46-8.457-8.46h-37.629v-20.54c0-4.308-3.222-7.855-7.386-8.382v45.84h16.308c-1.77 13.32-7.644 25.347-16.308 34.785v23.98c12.883 8.656 28.36 13.738 45.015 13.738a8.459 8.459 0 000-16.918 63.644 63.644 0 01-32.812-9.07c11.586-12.504 19.289-28.648 21.152-46.516zm0 0M404.86 409.36l-31.008-101.063c-1.442-4.8-7.34-7.055-13.418-7.07v27.437l13.898 49.04h-13.898v16.39h18.398l6.106 21.37c.804 3.056 3.535 4.177 7.07 4.177 5.625 0 13.176-3.692 13.176-8.672 0-.485-.16-.965-.325-1.61zm0 0"/></g></svg>